<svg xmlns="http://www.w3.org/2000/svg" xmlns:xlink="http://www.w3.org/1999/xlink" version="1.1" x="0px" y="0px" viewBox="0 0 100 125" enable-background="new 0 0 100 100" xml:space="preserve"><path fill="#000000" d="M69.4,50.1l4.9-4.8c5.6-5.6,5.7-14.7,0.1-20.4c-5.6-5.6-14.7-5.7-20.4-0.1l-4.9,4.8l-4.8-4.9  C38.7,19,29.6,19,23.9,24.6c-5.6,5.6-5.7,14.7-0.1,20.4l4.8,4.9l-4.9,4.8C18,60.3,18,69.4,23.6,75.1c5.6,5.6,14.7,5.7,20.4,0.1  l4.9-4.8l4.8,4.9c5.6,5.6,14.7,5.7,20.4,0.1c5.6-5.6,5.7-14.7,0.1-20.4L69.4,50.1z M68,69.2c-2.3,2.2-5.9,2.2-8.2,0L49,58.2L37.9,69  c-2.3,2.2-5.9,2.2-8.2,0s-2.2-5.9,0-8.2L40.8,50L30,38.9c-2.2-2.3-2.2-5.9,0-8.2c2.3-2.2,5.9-2.2,8.2,0L49,41.8L60.1,31  c2.3-2.2,5.9-2.2,8.2,0s2.2,5.9,0,8.2L57.2,50L68,61.1C70.3,63.4,70.2,67,68,69.2z"/><text x="0" y="115" fill="#000000" font-size="5px" font-weight="bold" font-family="'Helvetica Neue', Helvetica, Arial-Unicode, Arial, Sans-serif">Created by Javier Cabezas</text><text x="0" y="120" fill="#000000" font-size="5px" font-weight="bold" font-family="'Helvetica Neue', Helvetica, Arial-Unicode, Arial, Sans-serif">from the Noun Project</text></svg>