<svg xmlns="http://www.w3.org/2000/svg" data-name="Layer 1" viewBox="0 0 100 125" x="0px" y="0px"><title>100all</title><path d="M91.51,70A3,3,0,0,0,88.67,68H78.58V52.54a7,7,0,0,0-7-7h-.49v-4a9.94,9.94,0,0,0-2.64-6.73L39.56,5A10,10,0,0,0,26.83,3.64L13,12.85a8.94,8.94,0,0,0-3.93,8.65L11.77,42A13.29,13.29,0,0,0,15,50.35l4.53,5.27V68H11.33A3,3,0,0,0,8.49,70l-8,24.07A3,3,0,0,0,3.33,98H96.67a3,3,0,0,0,2.85-3.95ZM72.58,52.54v30H25.5V63.37l6.25,10.72a9.94,9.94,0,0,0,5,4.24l.33.13a10,10,0,0,0,3.61.68,9.91,9.91,0,0,0,8.81-14.37L42.8,51.54H71.58A1,1,0,0,1,72.58,52.54ZM17.74,41.39,15,20.73a3,3,0,0,1,1.31-2.88L30.16,8.64a4,4,0,0,1,5.09.55L64.08,39a3.89,3.89,0,0,1,1,2.62v4H39.78l-1.54-3.06a3,3,0,0,0-5.36,2.7L44.11,67.47a3.9,3.9,0,0,1-4.89,5.39l-.33-.13a3.92,3.92,0,0,1-2-1.67L29.47,58.28a10,10,0,0,0-1-1.46L19.52,46.44a7.29,7.29,0,0,1-1.76-4.69A3,3,0,0,0,17.74,41.39ZM7.49,92,13.5,74h6v8.6H16.61a3,3,0,1,0,0,6H81.25a3,3,0,0,0,0-6H78.58V74H86.5l6,18.07Z"/><text x="0" y="115" fill="#000000" font-size="5px" font-weight="bold" font-family="'Helvetica Neue', Helvetica, Arial-Unicode, Arial, Sans-serif">Created by Lakshisha</text><text x="0" y="120" fill="#000000" font-size="5px" font-weight="bold" font-family="'Helvetica Neue', Helvetica, Arial-Unicode, Arial, Sans-serif">from the Noun Project</text></svg>